<svg width="134" height="39" viewBox="0 0 134 39" fill="none" xmlns="http://www.w3.org/2000/svg">
<path d="M34.6082 0.693359H40.6998V38.5967H34.6082V0.693359ZM61.8753 26.6068C61.8753 32.4084 57.0407 32.8918 55.5903 32.8918C51.916 32.8918 51.3359 29.5076 51.3359 27.4771V12.9733H45.2443V27.4771C45.2443 31.0547 46.4046 34.0521 48.3384 35.986C50.0789 37.7264 52.6896 38.6934 55.5903 38.6934C57.6209 38.6934 60.4249 38.0165 61.972 36.6628V38.6934H68.0636V12.8766H61.972V26.6068H61.8753ZM80.0534 3.78751H73.9618V12.8766H69.4173V18.9682H73.9618V38.6934H80.0534V18.9682H84.598V12.8766H80.0534V3.78751ZM103.743 30.958C102.389 32.1183 100.649 32.7951 98.715 32.7951C94.4606 32.7951 91.3664 29.701 91.3664 25.4465C91.3664 21.1921 94.3639 18.1946 98.715 18.1946C100.552 18.1946 102.389 18.7748 103.743 20.0318L104.613 20.8053L108.674 16.7443L107.611 15.7773C105.193 13.6501 102.003 12.3931 98.6183 12.3931C91.0763 12.3931 85.5649 17.9046 85.5649 25.3498C85.5649 32.7951 91.173 38.5 98.6183 38.5C102.099 38.5 105.29 37.243 107.707 35.1157L108.674 34.1488L104.517 30.0878L103.743 30.958ZM130.43 15.1005C128.69 13.36 126.659 12.3931 123.758 12.3931C121.728 12.3931 119.504 12.9733 117.957 14.4236V0.780382H111.865V38.6837H117.957V24.4699C117.957 18.6684 122.115 18.185 123.565 18.185C127.239 18.185 127.046 21.5692 127.046 23.5997V38.587H133.137V23.6964C133.234 20.0221 132.461 17.1213 130.43 15.0908" fill="#212120"/>
<path d="M98.5217 21.0957C100.939 21.0957 102.873 23.0295 102.873 25.4468C102.873 27.8642 100.939 29.798 98.5217 29.798C96.1044 29.798 94.1705 27.8642 94.1705 25.4468C94.1705 23.0295 96.1044 21.0957 98.5217 21.0957Z" fill="#212120"/>
<path d="M26.0997 29.1207C23.7791 31.538 20.6849 32.795 17.3974 32.795C10.6289 32.795 5.69763 27.4769 5.69763 20.225C5.69763 12.9731 10.6289 7.55836 17.3974 7.55836C20.6849 7.55836 23.7791 8.81536 26.0997 11.2327L27.0666 12.1996L31.1277 8.13851L30.2574 7.17159C26.8732 3.69067 22.3287 1.85352 17.4941 1.85352C7.53478 1.84386 -0.00720215 9.78228 -0.00720215 20.312C-0.00720215 30.8418 7.53478 38.6835 17.3974 38.6835C22.3287 38.6835 26.8732 36.7497 30.2574 33.2688L31.1277 32.3019L27.0666 28.1441L26.0997 29.111V29.1207Z" fill="#212120"/>
</svg>
