<svg width="128" height="32" viewBox="0 0 128 32" fill="none" xmlns="http://www.w3.org/2000/svg">
<g clip-path="url(#clip0_2068_77)">
<path d="M33.6578 11.6809H46.5127V14.0668H41.4558V27.4739H38.6768V14.0668H33.6451V11.6809H33.6578ZM45.9653 16.0384H48.3401V18.2443H48.3864C48.4664 17.9303 48.6096 17.6331 48.8243 17.3401C49.0391 17.0471 49.2959 16.7709 49.5991 16.5365C49.9023 16.2895 50.2391 16.1011 50.6096 15.9463C50.9802 15.7998 51.3591 15.7244 51.7423 15.7244C52.0328 15.7244 52.2476 15.737 52.357 15.7454C52.4665 15.7537 52.5802 15.7788 52.7065 15.7914V18.2192C52.5255 18.1857 52.3486 18.1647 52.1591 18.1396C51.9697 18.1187 51.7886 18.1061 51.6118 18.1061C51.1865 18.1061 50.7823 18.194 50.3991 18.3615C50.0159 18.5289 49.6917 18.7842 49.4138 19.1065C49.1317 19.4414 48.9086 19.8432 48.7401 20.333C48.5717 20.8227 48.4917 21.3794 48.4917 22.0157V27.453H45.9569V16.03H45.9696L45.9653 16.0384ZM64.3488 27.4698H61.8603V25.875H61.814C61.4982 26.4526 61.0393 26.9131 60.4245 27.2563C59.8098 27.6037 59.1824 27.7795 58.5424 27.7795C57.0308 27.7795 55.9318 27.4112 55.2581 26.6661C54.5844 25.921 54.2476 24.795 54.2476 23.2882V16.0342H56.7824V23.0412C56.7824 24.0458 56.9718 24.7574 57.3634 25.1676C57.7466 25.5778 58.294 25.7913 58.9887 25.7913C59.5277 25.7913 59.9656 25.7117 60.3235 25.5443C60.6814 25.3769 60.9719 25.1634 61.1867 24.8871C61.4098 24.6192 61.5698 24.2844 61.6667 23.9077C61.7677 23.5267 61.814 23.1165 61.814 22.6728V16.0425H64.3488V27.4656V27.4698ZM68.6647 23.803C68.7447 24.5397 69.0226 25.0504 69.5068 25.3518C69.9994 25.6406 70.5847 25.7954 71.2668 25.7954C71.5026 25.7954 71.7721 25.7745 72.0753 25.741C72.3784 25.7075 72.6689 25.628 72.9258 25.5276C73.1953 25.4271 73.4058 25.2722 73.5869 25.0713C73.7553 24.8704 73.8353 24.6151 73.8227 24.2927C73.81 23.9704 73.6879 23.7025 73.4647 23.5016C73.2416 23.2882 72.9595 23.1333 72.6142 22.9993C72.2647 22.8779 71.8731 22.7649 71.4268 22.677C70.9805 22.5891 70.53 22.4887 70.071 22.3882C69.5994 22.2878 69.1405 22.1538 68.7026 22.0073C68.2647 21.8608 67.8731 21.6599 67.5236 21.4045C67.1741 21.1576 66.8962 20.8353 66.6941 20.446C66.4794 20.0567 66.3783 19.5754 66.3783 18.9977C66.3783 18.374 66.5341 17.8592 66.8373 17.4364C67.1404 17.0136 67.532 16.6788 67.991 16.4235C68.4626 16.1681 68.9763 15.9881 69.5489 15.8793C70.1215 15.7788 70.6689 15.7244 71.1868 15.7244C71.7805 15.7244 72.3531 15.7914 72.8921 15.9128C73.4311 16.0342 73.9237 16.2351 74.3616 16.5239C74.7995 16.8044 75.1574 17.1685 75.4479 17.6164C75.7385 18.0601 75.9195 18.6084 75.9953 19.2447H73.3511C73.229 18.6419 72.9595 18.2317 72.5216 18.0308C72.0837 17.8173 71.5784 17.7169 71.0184 17.7169C70.8373 17.7169 70.6268 17.7294 70.3784 17.7629C70.13 17.7964 69.9068 17.8508 69.6836 17.9303C69.4689 18.0099 69.292 18.1313 69.1363 18.2861C68.9889 18.441 68.9131 18.6419 68.9131 18.8973C68.9131 19.2112 69.0268 19.454 69.2373 19.6423C69.4478 19.8307 69.73 19.9897 70.0794 20.1195C70.4289 20.2409 70.8205 20.3539 71.2668 20.4418C71.7131 20.5297 72.1763 20.6302 72.6437 20.7306C73.1026 20.8311 73.5532 20.965 73.9995 21.1115C74.4458 21.258 74.8416 21.459 75.1869 21.7143C75.5364 21.9696 75.8143 22.2836 76.029 22.6603C76.2437 23.037 76.3532 23.5184 76.3532 24.0751C76.3532 24.7532 76.1974 25.3225 75.8816 25.8038C75.5658 26.2726 75.1658 26.6619 74.669 26.9507C74.1763 27.2395 73.6163 27.4614 73.01 27.5953C72.4037 27.7293 71.7974 27.7963 71.2037 27.7963C70.4752 27.7963 69.8015 27.7167 69.1868 27.5493C68.572 27.3819 68.0331 27.1391 67.5826 26.8126C67.1362 26.4777 66.7741 26.0675 66.5173 25.5778C66.2604 25.088 66.1257 24.4979 66.1046 23.8156H68.6605V23.7946L68.6647 23.803ZM77.0269 16.0342H78.9427V12.6018H81.4775V16.0342H83.7639V17.9178H81.4775V24.0249C81.4775 24.2927 81.4901 24.5146 81.5112 24.7155C81.5322 24.9039 81.5912 25.0713 81.667 25.2052C81.7428 25.3392 81.8691 25.4397 82.0375 25.5066C82.2059 25.5736 82.4207 25.6071 82.7112 25.6071C82.8923 25.6071 83.0691 25.6071 83.2502 25.5945C83.4312 25.582 83.6081 25.561 83.7891 25.515V27.4656C83.507 27.4991 83.2291 27.52 82.9723 27.5535C82.7028 27.587 82.4333 27.5995 82.1554 27.5995C81.4817 27.5995 80.9428 27.5326 80.5428 27.4112C80.1385 27.2898 79.8143 27.0972 79.5912 26.8545C79.3554 26.6075 79.208 26.3103 79.1196 25.9419C79.0396 25.5736 78.9848 25.1508 78.9722 24.682V17.9387H77.0564V16.0342H77.0353H77.0269ZM85.5576 16.0342H87.9576V17.5829H88.0039C88.3618 16.9132 88.8545 16.4444 89.4945 16.1556C90.1345 15.8667 90.8166 15.7202 91.5661 15.7202C92.4756 15.7202 93.2588 15.8751 93.9325 16.1974C94.6062 16.5114 95.1662 16.9425 95.6125 17.4992C96.0588 18.0559 96.3872 18.7047 96.6104 19.4372C96.8336 20.1739 96.9472 20.965 96.9472 21.798C96.9472 22.5682 96.8462 23.3133 96.6441 24.0249C96.442 24.749 96.1388 25.3852 95.7346 25.9419C95.3304 26.4987 94.8167 26.934 94.1893 27.2688C93.5619 27.6037 92.8335 27.7711 91.983 27.7711C91.6124 27.7711 91.2419 27.7377 90.8714 27.6707C90.5008 27.6037 90.1429 27.4907 89.8061 27.3484C89.4692 27.2019 89.145 27.0135 88.8629 26.7791C88.5724 26.5447 88.3366 26.2768 88.1345 25.9754H88.0882V31.6807H85.5534V16.0258L85.5576 16.0342ZM94.4125 21.7603C94.4125 21.2497 94.3451 20.7474 94.2104 20.2576C94.0756 19.7679 93.8735 19.3451 93.604 18.9642C93.3346 18.5833 92.9977 18.2861 92.6061 18.0601C92.2019 17.8382 91.7429 17.7127 91.2293 17.7127C90.164 17.7127 89.3555 18.081 88.8208 18.8177C88.2818 19.5544 88.0124 20.5339 88.0124 21.7603C88.0124 22.338 88.0797 22.8738 88.2271 23.3635C88.3745 23.8532 88.5766 24.276 88.8671 24.6318C89.1492 24.9876 89.4819 25.268 89.8777 25.469C90.2692 25.6824 90.7282 25.7829 91.2461 25.7829C91.8272 25.7829 92.3114 25.6615 92.7156 25.4271C93.1198 25.1927 93.444 24.8829 93.7009 24.5146C93.9577 24.1337 94.1472 23.7109 94.2609 23.2337C94.3619 22.7566 94.4167 22.2626 94.4167 21.7645L94.4125 21.7603ZM98.8841 11.6768H101.419V14.0627H98.8841V11.6768ZM98.8841 16.0342H101.419V27.4656H98.8841V16.0342ZM103.68 11.6768H106.215V27.4656H103.68V11.6809V11.6768ZM113.983 27.7795C113.065 27.7795 112.244 27.6246 111.529 27.3233C110.813 27.0219 110.206 26.5991 109.701 26.0759C109.209 25.5401 108.825 24.9039 108.568 24.1714C108.312 23.4388 108.177 22.6226 108.177 21.7436C108.177 20.8646 108.312 20.0735 108.568 19.3368C108.825 18.6001 109.209 17.968 109.701 17.4322C110.194 16.8964 110.813 16.4862 111.529 16.1849C112.244 15.8835 113.065 15.7286 113.983 15.7286C114.901 15.7286 115.722 15.8835 116.438 16.1849C117.154 16.4862 117.76 16.909 118.265 17.4322C118.758 17.968 119.141 18.6042 119.398 19.3368C119.655 20.0735 119.79 20.873 119.79 21.7436C119.79 22.6142 119.655 23.4388 119.398 24.1714C119.141 24.9039 118.758 25.5401 118.265 26.0759C117.773 26.6117 117.154 27.0219 116.438 27.3233C115.722 27.6246 114.901 27.7795 113.983 27.7795ZM113.983 25.7829C114.543 25.7829 115.036 25.6615 115.453 25.4271C115.865 25.1927 116.202 24.8829 116.472 24.502C116.741 24.1211 116.931 23.69 117.065 23.2086C117.188 22.7314 117.255 22.2375 117.255 21.7394C117.255 21.2413 117.188 20.7683 117.065 20.2786C116.943 19.7888 116.741 19.3661 116.472 18.9852C116.202 18.6042 115.865 18.3071 115.453 18.0727C115.04 17.8382 114.543 17.7169 113.983 17.7169C113.423 17.7169 112.931 17.8382 112.514 18.0727C112.101 18.3071 111.764 18.6168 111.495 18.9852C111.225 19.3661 111.036 19.7888 110.901 20.2786C110.779 20.7683 110.712 21.2497 110.712 21.7394C110.712 22.2291 110.779 22.7314 110.901 23.2086C111.023 23.6858 111.225 24.1211 111.495 24.502C111.764 24.8829 112.101 25.1927 112.514 25.4271C112.926 25.6741 113.423 25.7829 113.983 25.7829ZM120.531 16.0342H122.447V12.6018H124.981V16.0342H127.268V17.9178H124.981V24.0249C124.981 24.2927 124.994 24.5146 125.015 24.7155C125.036 24.9039 125.095 25.0713 125.171 25.2052C125.251 25.3392 125.373 25.4397 125.541 25.5066C125.71 25.5736 125.925 25.6071 126.215 25.6071C126.396 25.6071 126.573 25.6071 126.754 25.5945C126.935 25.582 127.112 25.561 127.293 25.515V27.4656C127.011 27.4991 126.733 27.52 126.476 27.5535C126.207 27.587 125.937 27.5995 125.659 27.5995C124.986 27.5995 124.447 27.5326 124.047 27.4112C123.642 27.2898 123.318 27.0972 123.095 26.8545C122.859 26.6075 122.712 26.3103 122.623 25.9419C122.543 25.5736 122.489 25.1508 122.476 24.682V17.9387H120.56V16.0342H120.539H120.531Z" fill="#212120"/>
<path d="M30.6966 11.6811H19.0838L15.5006 0.693359L11.9005 11.6811L0.28772 11.6685L9.69419 18.4662L6.09413 29.4414L15.5006 22.6562L24.8944 29.4414L21.307 18.4662L30.7009 11.6811H30.6966Z" fill="#505050"/>
<path d="M22.1116 20.9532L21.3031 18.4668L15.4967 22.6568L22.1116 20.9532Z" fill="black"/>
</g>
<defs>
<clipPath id="clip0_2068_77">
<rect width="127" height="31" fill="white" transform="translate(0.28772 0.693359)"/>
</clipPath>
</defs>
</svg>
