<svg width="200" height="38" viewBox="0 0 224 42" fill="none"
    xmlns="http://www.w3.org/2000/svg">
    <path
        d="M0.625515 41.9069C0.610573 28.3579 0.610573 14.8089 0.580688 1.25988C0.580688 0.435351 0.909415 0.205074 1.6864 0.212502C15.1492 0.21993 28.6121 0.212506 42.0749 0.205078C42.7996 0.205078 43.1134 0.479918 43.091 1.17074C43.091 1.29702 43.091 1.41587 43.091 1.54215C43.091 15.002 43.091 28.4545 43.091 41.9144H0.625515V41.9069ZM12.8332 34.4565C13.5056 34.3005 13.8044 33.8845 14.2004 33.6096C17.9359 30.9875 21.6864 28.3802 25.3995 25.7135C28.7914 23.277 32.1309 20.7812 35.6199 18.4859C35.8142 18.3596 36.1429 18.2853 36.0308 17.9659C35.9486 17.7207 35.6647 17.7802 35.4555 17.7727C35.2389 17.7653 35.0222 17.7727 34.8056 17.7727C31.9217 17.8247 29.0454 17.9807 26.1616 17.795C25.661 17.7653 25.2725 17.6985 25.0932 17.1339C24.1518 14.2444 23.1806 11.3548 22.2168 8.47265C22.1347 8.22752 22.172 7.81897 21.8358 7.8264C21.5146 7.8264 21.522 8.23495 21.4399 8.48751C20.5508 11.2359 19.6319 13.9769 18.81 16.7477C18.571 17.5648 18.1601 17.8173 17.3607 17.795C14.3872 17.7207 11.4137 18.0847 8.43276 17.795C8.17874 17.7727 7.78278 17.6613 7.69313 17.9882C7.596 18.315 8.00691 18.3893 8.22357 18.5378C10.6367 20.2092 13.0573 21.8731 15.4705 23.5444C15.9561 23.8787 16.2998 24.2427 16.0532 24.9261C15.5751 26.226 15.1567 27.5408 14.7159 28.8556C14.1033 30.6755 13.4981 32.5028 12.8481 34.4565H12.8332ZM30.5919 34.4565C30.6666 34.2707 30.7189 34.2039 30.704 34.1593C29.9718 31.916 29.2396 29.6653 28.4925 27.422C28.2833 26.7906 27.7977 26.7163 27.215 26.8871C25.8777 27.2734 24.5329 27.6448 23.1956 28.0311C22.9191 28.1128 22.4933 27.9939 22.426 28.3951C22.3663 28.759 22.7548 28.8779 22.9938 29.0487C24.3461 30.0218 25.7058 30.9875 27.0656 31.9532C28.231 32.7777 29.3965 33.6096 30.5919 34.4565Z"
        :fill="hover ? '#00B67A' : '#505050'" />
    <path
        d="M181.893 41.9144C182.062 41.3648 181.863 40.8152 181.871 40.2656C181.878 27.2686 181.878 14.279 181.856 1.28198C181.856 0.494729 182.099 0.205078 182.908 0.205078C196.107 0.219932 209.299 0.212505 222.498 0.205078C223.205 0.205078 223.573 0.3759 223.565 1.178C223.543 14.7543 223.536 28.3306 223.521 41.9069H181.893V41.9144ZM189.832 17.7845C189.397 17.881 188.824 17.5839 188.691 17.9999C188.559 18.4306 189.184 18.5272 189.478 18.7425C191.744 20.3542 194.033 21.9435 196.306 23.5477C196.873 23.9488 197.086 24.4612 196.843 25.1519C196.578 25.902 196.343 26.667 196.093 27.4245C195.394 29.5189 194.687 31.6133 193.988 33.7151C193.922 33.9156 193.768 34.1607 193.959 34.3167C194.224 34.5321 194.393 34.2276 194.57 34.0939C195.033 33.7448 195.46 33.3438 195.931 33.0096C198.94 30.8558 201.957 28.7317 204.958 26.5779C208.534 24.0082 212.102 21.4236 215.656 18.8242C215.972 18.594 216.657 18.5197 216.487 18.0296C216.34 17.6137 215.722 17.829 215.31 17.829C212.47 17.8068 209.638 18.1187 206.798 17.8439C206.194 17.7845 205.878 17.584 205.694 16.9824C204.826 14.1379 203.921 11.3008 203.023 8.46376C202.95 8.23352 202.935 7.88446 202.678 7.86218C202.317 7.83247 202.339 8.23352 202.258 8.47861C201.324 11.338 200.389 14.1973 199.477 17.0641C199.308 17.6062 199.043 17.9404 198.454 17.9033C195.556 17.7102 192.657 18.2375 189.817 17.8142L189.832 17.7845ZM211.345 34.4801C211.47 34.0716 211.264 33.8117 211.168 33.5294C210.557 31.6356 209.917 29.7492 209.307 27.8479C208.953 26.7561 208.821 26.667 207.747 26.9715C206.43 27.3428 205.105 27.7068 203.781 28.0707C203.553 28.1301 203.237 28.0855 203.156 28.3678C203.067 28.7094 203.399 28.8208 203.612 28.9768C205.694 30.4844 207.769 31.9846 209.858 33.4774C210.322 33.8117 210.682 34.3018 211.337 34.4801H211.345Z"
        :fill="hover ? '#00B67A' : '#505050'" />
    <path
        d="M136.316 41.9144C136.256 39.3359 136.152 36.7574 136.152 34.1714C136.129 23.6642 136.137 13.157 136.137 2.64982C136.137 0.21251 136.144 0.205078 138.627 0.205078C151.486 0.205078 164.345 0.205078 177.203 0.205078C178.467 0.205078 178.497 0.227371 178.497 1.50547C178.497 14.4426 178.49 27.3796 178.527 40.3242C178.527 40.8369 177.966 41.4462 178.647 41.9144H136.324H136.316ZM157.493 7.65821C157.238 8.14865 157.036 8.43102 156.947 8.74311C156.124 11.4777 154.927 14.1082 154.336 16.9096C154.156 17.7716 153.715 17.9648 152.982 17.9128C149.975 17.6973 146.96 18.1431 143.953 17.8013C143.707 17.7716 143.325 17.6601 143.228 18.0019C143.153 18.2694 143.49 18.3809 143.684 18.5147C145.913 20.0751 148.142 21.643 150.379 23.1961C151.83 24.2067 151.882 24.2141 151.314 25.9009C150.461 28.4348 149.541 30.9539 148.658 33.4804C148.561 33.7553 148.299 34.1194 148.606 34.3275C148.905 34.5281 149.16 34.1566 149.384 33.9708C152.279 31.5929 155.406 29.5272 158.488 27.4168C162.699 24.5262 166.731 21.3978 170.98 18.5592C171.196 18.4106 171.6 18.2843 171.518 17.9945C171.413 17.6155 170.994 17.779 170.703 17.779C167.913 17.8162 165.122 17.8682 162.332 17.9202C161.008 17.9425 160.859 17.7939 160.447 16.5381C159.505 13.6475 158.525 10.7792 157.485 7.67307L157.493 7.65821ZM166.08 34.4241C166.162 34.3721 166.245 34.3126 166.327 34.2606C165.526 31.9125 164.726 29.5717 163.918 27.2236C163.776 26.8149 163.477 26.6737 163.028 26.8075C161.569 27.231 160.111 27.6323 158.645 28.0484C158.413 28.1153 158.114 28.1079 158.076 28.4274C158.039 28.7172 158.286 28.8658 158.48 28.9996C159.265 29.5495 160.066 30.077 160.844 30.6344C162.594 31.8902 164.337 33.1534 166.08 34.4166V34.4241Z"
        :fill="hover ? '#00B67A' : '#505050'" />
    <path
        d="M46.3382 41.9144C46.3235 34.3612 46.3088 26.8007 46.3014 19.2476C46.3014 13.3209 46.3014 7.38686 46.3014 1.46022C46.3014 0.257068 46.3309 0.227358 47.5463 0.227358C60.6072 0.227358 73.6754 0.227359 86.7363 0.205078C87.5392 0.205078 87.9517 0.44274 87.9591 1.27455C87.9591 1.70531 88.0107 2.13607 88.0107 2.5594C88.0107 14.4795 88.0107 26.3996 88.0033 38.3198C88.0033 39.5155 87.9002 40.7112 87.8412 41.9069H46.3382V41.9144ZM58.3899 34.3835C58.5446 34.3464 58.6477 34.3538 58.7066 34.3093C61.307 32.4154 63.9 30.5141 66.5004 28.6277C66.773 28.4346 67.0234 28.0781 67.4507 28.3975C69.0566 29.608 70.6699 30.8186 72.2905 32.0144C73.4618 32.8833 74.6404 33.73 76.0327 34.7474C75.8191 34.079 75.6938 33.6483 75.5465 33.2249C74.9277 31.3608 74.2279 29.5189 73.7122 27.6251C73.4839 26.8007 73.1966 26.6224 72.4599 26.8898C71.1929 27.3503 69.8227 27.432 68.5704 27.9593C68.3273 28.0633 67.9737 28.2118 67.8411 27.8924C67.7085 27.5657 68.1063 27.4617 68.3126 27.3131C68.6588 27.0606 69.0271 26.8452 69.3807 26.5927C73.1819 23.9042 76.8283 21.0077 80.7473 18.4826C80.9314 18.3638 81.2703 18.2969 81.1598 17.9701C81.0788 17.7325 80.7915 17.7845 80.5852 17.7919C79.274 17.8142 77.9554 17.8365 76.6441 17.881C74.7215 17.9404 72.7988 17.8884 70.8761 17.7919C70.5004 17.7696 70.2647 17.6211 70.191 17.2052C69.6386 14.227 68.3347 11.4939 67.4433 8.62715C67.3697 8.38206 67.3255 8.00329 66.9792 8.04042C66.6993 8.07013 66.7361 8.43405 66.6698 8.65686C65.7638 11.4271 64.8577 14.1973 63.9811 16.9824C63.7895 17.5988 63.4654 17.9107 62.795 17.8736C59.7748 17.7102 56.7471 18.1558 53.7195 17.8142C53.5501 17.7919 53.3438 17.7399 53.1817 18.0073C53.4838 18.4455 53.9405 18.75 54.3751 19.0619C56.4967 20.5695 58.6109 22.0921 60.7545 23.5626C61.3807 23.9933 61.5869 24.4389 61.3291 25.1816C60.4672 27.6474 59.6495 30.1205 58.8171 32.6011C58.6256 33.1655 58.3751 33.7225 58.3972 34.391L58.3899 34.3835Z"
        :fill="hover ? '#00B67A' : '#505050'" />
    <path
        d="M91.2544 41.9069C91.2396 41.1714 91.2174 40.4359 91.2174 39.7078C91.2174 27.0108 91.2174 14.3212 91.2174 1.62412C91.2174 0.205081 91.2174 0.205078 92.6513 0.205078C105.638 0.205078 118.624 0.205078 131.604 0.205078C132.897 0.205078 132.927 0.227367 132.927 1.45324C132.927 14.2097 132.927 26.9662 132.927 39.7227C132.927 40.4656 132.897 41.1937 132.705 41.9144H91.247L91.2544 41.9069ZM120.775 34.4997C120.79 34.3957 120.834 34.2991 120.812 34.2174C120.088 31.9068 119.364 29.5888 118.624 27.2857C118.469 26.7879 118.078 26.773 117.649 26.877C116.4 27.1891 115.151 27.516 113.901 27.8131C113.584 27.8874 113.147 28.3109 112.948 27.8429C112.8 27.4862 113.325 27.2782 113.613 27.0776C115.032 26.0598 116.459 25.0494 117.878 24.0241C120.494 22.1444 123.059 20.2053 125.757 18.4371C125.927 18.3257 126.238 18.2811 126.193 18.0285C126.134 17.7016 125.809 17.8056 125.58 17.7907C125.365 17.7684 125.151 17.7907 124.937 17.7907C122.15 17.7387 119.364 18.0359 116.57 17.8799C115.683 17.8279 115.328 17.449 115.091 16.6912C114.256 13.9943 113.391 11.3048 112.527 8.62272C112.438 8.35525 112.453 7.92434 112.031 7.96149C111.699 7.99121 111.721 8.37754 111.647 8.63015C110.797 11.3568 109.799 14.0388 109.097 16.81C108.927 17.4861 108.513 17.9913 107.73 17.917C104.825 17.6347 101.905 18.1919 99.0005 17.8205C98.7196 17.7833 98.2835 17.6719 98.1653 17.9913C98.0322 18.3554 98.4979 18.4371 98.727 18.6005C101.114 20.3242 103.509 22.0404 105.904 23.7492C106.37 24.0835 106.68 24.4476 106.407 25.0568C105.246 27.672 104.611 30.4729 103.635 33.155C103.494 33.5413 103.31 33.9276 103.42 34.4254C103.59 34.3363 103.709 34.2991 103.797 34.2323C106.274 32.4269 108.757 30.6289 111.226 28.8087C111.743 28.4224 112.209 28.2069 112.793 28.6527C115.099 30.3838 117.412 32.1 119.733 33.8162C120.066 34.0614 120.28 34.4848 120.783 34.5146L120.775 34.4997Z"
        :fill="hover ? '#00B67A' : '#505050'" />
</svg>